<mxfile host="app.diagrams.net" modified="2022-08-12T09:24:38.045Z" agent="5.0 (X11; Linux x86_64) AppleWebKit/537.36 (KHTML, like Gecko) Chrome/104.0.0.0 Safari/537.36" etag="6kxfF1XG-emLsBhl3guk" version="20.2.3" type="github">
  <diagram id="7HiGV6OWuosXOLhOXsS8" name="第 1 页">
    <mxGraphModel dx="1790" dy="784" grid="1" gridSize="10" guides="1" tooltips="1" connect="1" arrows="1" fold="1" page="1" pageScale="1" pageWidth="827" pageHeight="1169" math="0" shadow="0">
      <root>
        <mxCell id="0" />
        <mxCell id="1" parent="0" />
        <mxCell id="iPEw-ZQhXxYZATJUESGD-1" value="" style="rounded=0;whiteSpace=wrap;html=1;" vertex="1" parent="1">
          <mxGeometry y="40" width="900" height="700" as="geometry" />
        </mxCell>
      </root>
    </mxGraphModel>
  </diagram>
</mxfile>
